<svg width="690" height="309" viewBox="0 0 690 309" fill="none" xmlns="http://www.w3.org/2000/svg">
<path d="M3.755 118C2.765 118 1.94 117.67 1.28 117.01C0.62 116.35 0.29 115.525 0.29 114.535V102.49C0.29 101.5 0.62 100.675 1.28 100.015C1.94 99.355 2.765 99.025 3.755 99.025H15.965C18.715 99.025 20.86 98.2 22.4 96.55C24.05 94.79 24.875 92.425 24.875 89.455V3.49C24.875 2.5 25.205 1.675 25.865 1.01499C26.525 0.354994 27.35 0.0249945 28.34 0.0249945H41.54C42.53 0.0249945 43.355 0.354994 44.015 1.01499C44.675 1.675 45.005 2.5 45.005 3.49V89.455C45.005 94.845 43.795 99.74 41.375 104.14C39.065 108.43 35.82 111.84 31.64 114.37C27.46 116.79 22.73 118 17.45 118H3.755ZM107.839 120.145C100.689 120.145 94.0891 118.44 88.0391 115.03C82.0991 111.51 77.3691 106.78 73.8491 100.84C70.3291 94.9 68.5691 88.465 68.5691 81.535V59.92C68.5691 52.99 70.3291 46.555 73.8491 40.615C77.3691 34.675 82.0991 30 88.0391 26.59C94.0891 23.07 100.689 21.31 107.839 21.31C114.989 21.31 121.534 23.07 127.474 26.59C133.524 30 138.309 34.675 141.829 40.615C145.349 46.555 147.109 52.99 147.109 59.92V81.535C147.109 88.465 145.349 94.9 141.829 100.84C138.309 106.78 133.524 111.51 127.474 115.03C121.534 118.44 114.989 120.145 107.839 120.145ZM107.839 101.005C113.229 101.005 117.794 99.135 121.534 95.395C125.384 91.545 127.309 86.925 127.309 81.535V59.92C127.309 54.53 125.384 49.965 121.534 46.225C117.794 42.375 113.229 40.45 107.839 40.45C102.449 40.45 97.8291 42.375 93.9791 46.225C90.2391 49.965 88.3691 54.53 88.3691 59.92V81.535C88.3691 86.925 90.2391 91.545 93.9791 95.395C97.8291 99.135 102.449 101.005 107.839 101.005ZM166.769 118C165.779 118 164.954 117.67 164.294 117.01C163.634 116.35 163.304 115.525 163.304 114.535V102.325C163.304 101.335 163.634 100.51 164.294 99.85C164.954 99.19 165.779 98.86 166.769 98.86H179.309V42.1H165.119C164.129 42.1 163.304 41.77 162.644 41.11C161.984 40.45 161.654 39.625 161.654 38.635V26.92C161.654 25.93 161.984 25.105 162.644 24.445C163.304 23.785 164.129 23.455 165.119 23.455H190.694C192.674 23.455 194.324 24.17 195.644 25.6C197.074 26.92 197.789 28.57 197.789 30.55V36.49L206.699 29.395C209.999 26.755 212.859 24.94 215.279 23.95C217.699 22.85 220.559 22.3 223.859 22.3H228.974C229.964 22.3 230.789 22.63 231.449 23.29C232.109 23.95 232.439 24.775 232.439 25.765V38.47C232.439 39.46 232.109 40.285 231.449 40.945C230.789 41.605 229.964 41.935 228.974 41.935H224.684C221.824 41.935 219.349 42.43 217.259 43.42C215.169 44.41 211.979 46.61 207.689 50.02L198.614 57.28V98.86H214.949C215.939 98.86 216.764 99.19 217.424 99.85C218.084 100.51 218.414 101.335 218.414 102.325V114.535C218.414 115.525 218.084 116.35 217.424 117.01C216.764 117.67 215.939 118 214.949 118H166.769ZM281.317 152.155C270.317 152.155 261.517 150.175 254.917 146.215C248.427 142.365 245.182 136.315 245.182 128.065C245.182 122.015 247.272 116.79 251.452 112.39C247.492 109.2 245.512 104.8 245.512 99.19C245.512 95.45 246.392 91.93 248.152 88.63C250.022 85.22 252.552 82.305 255.742 79.885C252.222 76.915 249.472 73.34 247.492 69.16C245.622 64.87 244.687 60.195 244.687 55.135C244.687 48.425 246.282 42.485 249.472 37.315C252.772 32.145 257.172 28.185 262.672 25.435C268.282 22.575 274.442 21.145 281.152 21.145C285.992 21.145 290.612 21.915 295.012 23.455H327.517C328.507 23.455 329.332 23.785 329.992 24.445C330.652 25.105 330.982 25.93 330.982 26.92V37.81C330.982 38.8 330.652 39.625 329.992 40.285C329.332 40.945 328.507 41.275 327.517 41.275H314.647C316.517 45.565 317.452 50.185 317.452 55.135C317.452 61.735 315.802 67.62 312.502 72.79C309.312 77.85 304.967 81.81 299.467 84.67C293.967 87.42 287.862 88.795 281.152 88.795C276.092 88.795 271.087 87.915 266.137 86.155C263.827 88.465 262.672 90.885 262.672 93.415C262.672 95.615 263.497 97.155 265.147 98.035C266.797 98.805 269.217 99.3 272.407 99.52C276.807 99.74 281.262 99.85 285.772 99.85L293.197 100.015C302.437 100.235 309.917 101.885 315.637 104.965C321.467 108.045 324.382 113.875 324.382 122.455C324.382 132.355 320.367 139.78 312.337 144.73C304.417 149.68 294.077 152.155 281.317 152.155ZM281.152 71.47C286.322 71.47 290.392 69.985 293.362 67.015C296.332 64.045 297.817 60.085 297.817 55.135C297.817 50.185 296.332 46.17 293.362 43.09C290.392 40.01 286.322 38.47 281.152 38.47C275.982 38.47 271.857 40.01 268.777 43.09C265.807 46.17 264.322 50.185 264.322 55.135C264.322 60.085 265.807 64.045 268.777 67.015C271.857 69.985 275.982 71.47 281.152 71.47ZM282.802 135.16C297.102 135.16 304.252 131.75 304.252 124.93C304.252 122.07 303.152 120.2 300.952 119.32C298.862 118.44 295.892 118 292.042 118H275.872C271.802 118 268.447 117.835 265.807 117.505C264.597 119.485 263.992 121.795 263.992 124.435C263.992 128.615 265.587 131.42 268.777 132.85C272.077 134.39 276.752 135.16 282.802 135.16ZM381.765 118C374.615 118 368.015 116.24 361.965 112.72C356.025 109.2 351.295 104.415 347.775 98.365C344.255 92.315 342.495 85.715 342.495 78.565V60.745C342.495 53.595 344.255 46.995 347.775 40.945C351.295 34.895 356.025 30.11 361.965 26.59C368.015 23.07 374.615 21.31 381.765 21.31C388.915 21.31 395.46 23.07 401.4 26.59C407.45 30.11 412.235 34.895 415.755 40.945C419.275 46.995 421.035 53.595 421.035 60.745V71.8C421.035 73.78 420.32 75.485 418.89 76.915C417.57 78.235 415.92 78.895 413.94 78.895H362.295V79.72C362.295 85.11 364.165 89.73 367.905 93.58C371.755 97.32 376.375 99.19 381.765 99.19H408C408.99 99.19 409.815 99.52 410.475 100.18C411.135 100.84 411.465 101.665 411.465 102.655V114.535C411.465 115.525 411.135 116.35 410.475 117.01C409.815 117.67 408.99 118 408 118H381.765ZM401.235 61.075V59.59C401.235 54.2 399.31 49.635 395.46 45.895C391.72 42.045 387.155 40.12 381.765 40.12C376.375 40.12 371.755 42.045 367.905 45.895C364.165 49.635 362.295 54.2 362.295 59.59V61.075H401.235ZM65.795 306.99C64.585 306.99 63.485 306.66 62.495 306C61.615 305.34 61.01 304.46 60.68 303.36L38.9 236.7L34.775 221.85L33.125 237.195L26.03 301.875C25.81 303.085 25.26 304.075 24.38 304.845C23.5 305.615 22.51 306 21.41 306H9.035C7.825 306 6.89 305.615 6.23 304.845C5.57 304.075 5.295 303.085 5.405 301.875L19.1 192.48C19.21 191.05 19.76 189.895 20.75 189.015C21.85 188.025 23.17 187.53 24.71 187.53H39.725C40.935 187.53 41.98 187.915 42.86 188.685C43.85 189.345 44.51 190.225 44.84 191.325L69.59 267.39L72.89 278.775L76.19 267.555L101.105 191.16C101.435 190.06 102.04 189.18 102.92 188.52C103.91 187.86 105.01 187.53 106.22 187.53H119.915C121.455 187.53 122.72 188.025 123.71 189.015C124.81 189.895 125.415 191.05 125.525 192.48L139.22 301.875C139.33 303.085 139.055 304.075 138.395 304.845C137.735 305.615 136.8 306 135.59 306H122.72C121.51 306 120.465 305.615 119.585 304.845C118.705 304.075 118.21 303.14 118.1 302.04L110.675 236.04L109.025 221.85L104.735 237.36L83.45 303.195C83.12 304.295 82.46 305.23 81.47 306C80.59 306.66 79.545 306.99 78.335 306.99H65.795ZM197.59 308.145C190.44 308.145 183.84 306.44 177.79 303.03C171.85 299.51 167.12 294.78 163.6 288.84C160.08 282.9 158.32 276.465 158.32 269.535V247.92C158.32 240.99 160.08 234.555 163.6 228.615C167.12 222.675 171.85 218 177.79 214.59C183.84 211.07 190.44 209.31 197.59 209.31C204.74 209.31 211.285 211.07 217.225 214.59C223.275 218 228.06 222.675 231.58 228.615C235.1 234.555 236.86 240.99 236.86 247.92V269.535C236.86 276.465 235.1 282.9 231.58 288.84C228.06 294.78 223.275 299.51 217.225 303.03C211.285 306.44 204.74 308.145 197.59 308.145ZM197.59 289.005C202.98 289.005 207.545 287.135 211.285 283.395C215.135 279.545 217.06 274.925 217.06 269.535V247.92C217.06 242.53 215.135 237.965 211.285 234.225C207.545 230.375 202.98 228.45 197.59 228.45C192.2 228.45 187.58 230.375 183.73 234.225C179.99 237.965 178.12 242.53 178.12 247.92V269.535C178.12 274.925 179.99 279.545 183.73 283.395C187.58 287.135 192.2 289.005 197.59 289.005ZM262.897 306C261.907 306 261.082 305.67 260.422 305.01C259.762 304.35 259.432 303.525 259.432 302.535V214.92C259.432 213.93 259.762 213.105 260.422 212.445C261.082 211.785 261.907 211.455 262.897 211.455H275.767C276.757 211.455 277.582 211.785 278.242 212.445C278.902 213.105 279.232 213.93 279.232 214.92V222.675C282.312 218.495 285.942 215.25 290.122 212.94C294.412 210.52 299.087 209.31 304.147 209.31C310.417 209.31 316.027 210.795 320.977 213.765C326.037 216.735 329.997 220.86 332.857 226.14C335.717 231.42 337.147 237.36 337.147 243.96V302.535C337.147 303.525 336.817 304.35 336.157 305.01C335.497 305.67 334.672 306 333.682 306H320.812C319.822 306 318.997 305.67 318.337 305.01C317.677 304.35 317.347 303.525 317.347 302.535V246.435C317.347 240.605 315.862 236.15 312.892 233.07C309.922 229.88 305.742 228.285 300.352 228.285C293.862 228.285 288.692 230.43 284.842 234.72C281.102 238.9 279.232 244.675 279.232 252.045V302.535C279.232 303.525 278.902 304.35 278.242 305.01C277.582 305.67 276.757 306 275.767 306H262.897ZM397.092 306C388.512 306 381.527 303.36 376.137 298.08C370.857 292.8 368.217 285.87 368.217 277.29V229.935H356.832C355.842 229.935 355.017 229.605 354.357 228.945C353.697 228.285 353.367 227.46 353.367 226.47V214.92C353.367 213.93 353.697 213.105 354.357 212.445C355.017 211.785 355.842 211.455 356.832 211.455H368.217V193.635C368.217 192.645 368.547 191.82 369.207 191.16C369.867 190.5 370.692 190.17 371.682 190.17H384.552C385.542 190.17 386.367 190.5 387.027 191.16C387.687 191.82 388.017 192.645 388.017 193.635V211.455H415.902C416.892 211.455 417.717 211.785 418.377 212.445C419.037 213.105 419.367 213.93 419.367 214.92V226.635C419.367 227.625 419.037 228.45 418.377 229.11C417.717 229.77 416.892 230.1 415.902 230.1H388.017V276.465C388.017 279.765 388.952 282.405 390.822 284.385C392.802 286.365 395.387 287.355 398.577 287.355L415.902 287.52C416.892 287.52 417.717 287.85 418.377 288.51C419.037 289.17 419.367 289.995 419.367 290.985V302.535C419.367 303.525 419.037 304.35 418.377 305.01C417.717 305.67 416.892 306 415.902 306H397.092ZM473.933 306C466.783 306 460.183 304.24 454.133 300.72C448.193 297.2 443.463 292.415 439.943 286.365C436.423 280.315 434.663 273.715 434.663 266.565V248.745C434.663 241.595 436.423 234.995 439.943 228.945C443.463 222.895 448.193 218.11 454.133 214.59C460.183 211.07 466.783 209.31 473.933 209.31C481.083 209.31 487.628 211.07 493.568 214.59C499.618 218.11 504.403 222.895 507.923 228.945C511.443 234.995 513.203 241.595 513.203 248.745V259.8C513.203 261.78 512.488 263.485 511.058 264.915C509.738 266.235 508.088 266.895 506.108 266.895H454.463V267.72C454.463 273.11 456.333 277.73 460.073 281.58C463.923 285.32 468.543 287.19 473.933 287.19H500.168C501.158 287.19 501.983 287.52 502.643 288.18C503.303 288.84 503.633 289.665 503.633 290.655V302.535C503.633 303.525 503.303 304.35 502.643 305.01C501.983 305.67 501.158 306 500.168 306H473.933ZM493.403 249.075V247.59C493.403 242.2 491.478 237.635 487.628 233.895C483.888 230.045 479.323 228.12 473.933 228.12C468.543 228.12 463.923 230.045 460.073 233.895C456.333 237.635 454.463 242.2 454.463 247.59V249.075H493.403ZM533.346 306C532.356 306 531.531 305.67 530.871 305.01C530.211 304.35 529.881 303.525 529.881 302.535V290.325C529.881 289.335 530.211 288.51 530.871 287.85C531.531 287.19 532.356 286.86 533.346 286.86H545.886V230.1H531.696C530.706 230.1 529.881 229.77 529.221 229.11C528.561 228.45 528.231 227.625 528.231 226.635V214.92C528.231 213.93 528.561 213.105 529.221 212.445C529.881 211.785 530.706 211.455 531.696 211.455H557.271C559.251 211.455 560.901 212.17 562.221 213.6C563.651 214.92 564.366 216.57 564.366 218.55V224.49L573.276 217.395C576.576 214.755 579.436 212.94 581.856 211.95C584.276 210.85 587.136 210.3 590.436 210.3H595.551C596.541 210.3 597.366 210.63 598.026 211.29C598.686 211.95 599.016 212.775 599.016 213.765V226.47C599.016 227.46 598.686 228.285 598.026 228.945C597.366 229.605 596.541 229.935 595.551 229.935H591.261C588.401 229.935 585.926 230.43 583.836 231.42C581.746 232.41 578.556 234.61 574.266 238.02L565.191 245.28V286.86H581.526C582.516 286.86 583.341 287.19 584.001 287.85C584.661 288.51 584.991 289.335 584.991 290.325V302.535C584.991 303.525 584.661 304.35 584.001 305.01C583.341 305.67 582.516 306 581.526 306H533.346ZM650.534 308.145C643.384 308.145 636.784 306.44 630.734 303.03C624.794 299.51 620.064 294.78 616.544 288.84C613.024 282.9 611.264 276.465 611.264 269.535V247.92C611.264 240.99 613.024 234.555 616.544 228.615C620.064 222.675 624.794 218 630.734 214.59C636.784 211.07 643.384 209.31 650.534 209.31C657.684 209.31 664.229 211.07 670.169 214.59C676.219 218 681.004 222.675 684.524 228.615C688.044 234.555 689.804 240.99 689.804 247.92V269.535C689.804 276.465 688.044 282.9 684.524 288.84C681.004 294.78 676.219 299.51 670.169 303.03C664.229 306.44 657.684 308.145 650.534 308.145ZM650.534 289.005C655.924 289.005 660.489 287.135 664.229 283.395C668.079 279.545 670.004 274.925 670.004 269.535V247.92C670.004 242.53 668.079 237.965 664.229 234.225C660.489 230.375 655.924 228.45 650.534 228.45C645.144 228.45 640.524 230.375 636.674 234.225C632.934 237.965 631.064 242.53 631.064 247.92V269.535C631.064 274.925 632.934 279.545 636.674 283.395C640.524 287.135 645.144 289.005 650.534 289.005Z" fill="#681210"/>
</svg>
